<svg id="Icons" xmlns="http://www.w3.org/2000/svg" viewBox="0 0 512 512"><defs><style>.cls-1{fill:#15be79;}.cls-2{fill:#14a36d;}.cls-3{fill:#7a2b13;}.cls-4{fill:#8c4735;}.cls-5{fill:#a05740;}.cls-6{fill:#b76049;}.cls-7{fill:#c2aacf;}.cls-8{fill:#decee5;}.cls-9{fill:#f4e6f4;}.cls-10{fill:#fff;}.cls-11{fill:#33db92;}</style></defs><title>019-beer-export</title><circle class="cls-1" cx="256" cy="256" r="255.98"/><path class="cls-2" d="M508.81,296.61c-14.63,12.52-29.54,23.9-48.29,25.6-22,2-42.82-10.62-58.66-26s-28.54-33.88-45.22-48.36a129.2,129.2,0,0,0-181,11.46c-16.27,18.23-30.47,43-54.75,45.88-33,3.93-58.78-36.33-91.88-33.27-9.67.91-18.52,5.49-27.79,8.38C-12.24,139.7,90.78,14.78,231.4,1.2S497.21,90.68,510.8,231.4A256.53,256.53,0,0,1,508.81,296.61Z"/><path class="cls-3" d="M466.6,201.25l17.24,64.35a13,13,0,0,1-9.19,15.93l-39.28,10.53-4.45-16.62,29.84-8a5.55,5.55,0,0,0,3.94-6.82l-12.19-45.49a5.57,5.57,0,0,0-6.82-3.94l-29.85,8-4.45-16.62,39.28-10.52A13,13,0,0,1,466.6,201.25Z"/><path class="cls-4" d="M466.6,201.25,482,258.65a13,13,0,0,1-9.19,15.93l-24.41,6.54a3.93,3.93,0,0,1-4.81-2.77l-.56-2.09a3.92,3.92,0,0,1,2.78-4.8L466.3,266a5.57,5.57,0,0,0,3.94-6.82l-14.05-52.45a5.58,5.58,0,0,0-6.82-3.94l-20.52,5.5a3.93,3.93,0,0,1-4.81-2.78l-.55-2.07a3.92,3.92,0,0,1,2.77-4.81l24.41-6.54A13,13,0,0,1,466.6,201.25Z"/><ellipse class="cls-5" cx="464.97" cy="214.19" rx="4.92" ry="10.84" transform="translate(-39.59 127.64) rotate(-15)"/><ellipse class="cls-5" cx="470.59" cy="235.15" rx="3.41" ry="7.52" transform="translate(-44.83 129.81) rotate(-15)"/><rect class="cls-3" x="289.73" y="174.18" width="136.84" height="188.06" rx="10.87" transform="translate(-57.21 101.83) rotate(-15)"/><path class="cls-4" d="M402.71,170.18l41.86,156.21L338.3,354.86,293.63,188.15l95.76-25.66A10.87,10.87,0,0,1,402.71,170.18Z"/><path class="cls-4" d="M293.63,188.15,342.3,369.8l-15.4,4.13a10.88,10.88,0,0,1-13.32-7.69l-43-160.65a10.88,10.88,0,0,1,7.69-13.32Z"/><path class="cls-4" d="M402.71,170.18l43.05,160.64a10.88,10.88,0,0,1-7.69,13.32l-15.4,4.13L374,166.61l15.4-4.12A10.87,10.87,0,0,1,402.71,170.18Z"/><rect class="cls-4" x="327.02" y="178.92" width="26.82" height="188.06" transform="translate(-59.05 97.41) rotate(-15)"/><rect class="cls-4" x="362.45" y="169.43" width="26.82" height="188.06" transform="translate(-55.38 106.26) rotate(-15)"/><path class="cls-5" d="M282.66,191.09l11-2.94L338.3,354.86l-.47.13a10.87,10.87,0,0,1-13.31-7.69Z"/><rect class="cls-5" x="325.02" y="179.19" width="26.82" height="172.6" transform="translate(-57.18 96.64) rotate(-15)"/><rect class="cls-5" x="360.45" y="169.69" width="26.82" height="172.6" transform="translate(-53.52 105.48) rotate(-15)"/><path class="cls-5" d="M402.71,170.18l41.86,156.21-25.91,6.94L374,166.61l15.4-4.12A10.87,10.87,0,0,1,402.71,170.18Z"/><ellipse class="cls-6" cx="402.02" cy="213.92" rx="8.72" ry="20.76" transform="translate(-41.67 111.34) rotate(-15)"/><ellipse class="cls-6" cx="412.36" cy="252.5" rx="5.54" ry="12.59" transform="translate(-51.3 115.33) rotate(-15)"/><ellipse class="cls-6" cx="369.98" cy="236.15" rx="8.72" ry="20.76" transform="translate(-48.51 103.81) rotate(-15)"/><ellipse class="cls-6" cx="380.32" cy="274.73" rx="5.54" ry="12.59" transform="translate(-58.15 107.8) rotate(-15)"/><ellipse class="cls-6" cx="337.97" cy="258.38" rx="8.72" ry="20.76" transform="translate(-55.36 96.28) rotate(-15)"/><ellipse class="cls-6" cx="348.3" cy="296.96" rx="5.54" ry="12.59" transform="translate(-64.99 100.27) rotate(-15)"/><rect class="cls-7" x="270.99" y="202.54" width="143.97" height="18.05" rx="3.04" transform="translate(-43.07 95.98) rotate(-15)"/><path class="cls-8" d="M411,187.16l2.59,9.64L285.72,231.05A3,3,0,0,1,282,228.9l-2.59-9.65L407.22,185A3,3,0,0,1,411,187.16Z"/><ellipse class="cls-9" cx="367.49" cy="201.73" rx="12.14" ry="4.46" transform="translate(-39.69 101.99) rotate(-15)"/><ellipse class="cls-9" cx="390.05" cy="195.68" rx="7.36" ry="2.83" transform="translate(-37.36 107.62) rotate(-15)"/><rect class="cls-7" x="299.63" y="309.46" width="143.97" height="18.05" rx="3.04" transform="translate(-69.77 107.03) rotate(-15)"/><path class="cls-8" d="M439.6,294.08l2.59,9.64L314.37,338a3,3,0,0,1-3.73-2.15l-2.59-9.65,127.82-34.25A3,3,0,0,1,439.6,294.08Z"/><ellipse class="cls-9" cx="396.14" cy="308.65" rx="12.14" ry="4.46" transform="translate(-66.39 113.04) rotate(-15)"/><ellipse class="cls-9" cx="418.7" cy="302.6" rx="7.36" ry="2.83" transform="translate(-64.05 118.68) rotate(-15)"/><path class="cls-10" d="M278,192.32v0l111.6-29.92a15.8,15.8,0,0,0-24.48-8.85,15.89,15.89,0,0,0-30.66,7.87,24.64,24.64,0,0,0-27.1,5.37A12.3,12.3,0,0,0,284,174.27a12.09,12.09,0,0,0,1.48,3.4A12.3,12.3,0,0,0,278,192.32Z"/><path class="cls-10" d="M274.66,294.93h0a14.25,14.25,0,0,0,14.25-14.25l-7.17-86.1a7.08,7.08,0,0,0-7.08-6.78h0a7.08,7.08,0,0,0-7.07,6.78l-7.18,86.1A14.25,14.25,0,0,0,274.66,294.93Z"/><rect class="cls-10" x="259.3" y="306.15" width="30.73" height="36.43" rx="15.36" transform="translate(549.33 648.73) rotate(180)"/><path class="cls-3" d="M45.4,201.25,28.16,265.6a13,13,0,0,0,9.19,15.93l39.28,10.53,4.45-16.62-29.84-8a5.55,5.55,0,0,1-3.94-6.82l12.19-45.49a5.57,5.57,0,0,1,6.82-3.94l29.85,8,4.45-16.62L61.33,192.05A13,13,0,0,0,45.4,201.25Z"/><path class="cls-4" d="M45.4,201.25,30,258.65a13,13,0,0,0,9.19,15.93l24.41,6.54a3.93,3.93,0,0,0,4.81-2.77l.56-2.09a3.92,3.92,0,0,0-2.78-4.8L45.7,266a5.57,5.57,0,0,1-3.94-6.82l14.05-52.45a5.58,5.58,0,0,1,6.82-3.94l20.52,5.5A3.93,3.93,0,0,0,88,205.47l.55-2.07a3.92,3.92,0,0,0-2.77-4.81l-24.41-6.54A13,13,0,0,0,45.4,201.25Z"/><ellipse class="cls-5" cx="47.03" cy="214.19" rx="10.84" ry="4.92" transform="translate(-172.04 204.18) rotate(-75)"/><ellipse class="cls-5" cx="41.41" cy="235.15" rx="7.52" ry="3.41" transform="translate(-196.44 214.29) rotate(-75)"/><rect class="cls-3" x="59.82" y="199.79" width="188.06" height="136.84" rx="10.87" transform="translate(-145.04 347.4) rotate(-75)"/><path class="cls-4" d="M109.29,170.18,67.43,326.39,173.7,354.86l44.67-166.71-95.76-25.66A10.87,10.87,0,0,0,109.29,170.18Z"/><path class="cls-4" d="M218.37,188.15,169.7,369.8l15.4,4.13a10.88,10.88,0,0,0,13.32-7.69l43-160.65a10.88,10.88,0,0,0-7.69-13.32Z"/><path class="cls-4" d="M109.29,170.18,66.24,330.82a10.88,10.88,0,0,0,7.69,13.32l15.4,4.13L138,166.61l-15.4-4.12A10.87,10.87,0,0,0,109.29,170.18Z"/><rect class="cls-4" x="77.54" y="259.54" width="188.06" height="26.82" transform="translate(-136.49 368.03) rotate(-75)"/><rect class="cls-4" x="42.11" y="250.05" width="188.06" height="26.82" transform="translate(-153.58 326.77) rotate(-75)"/><path class="cls-5" d="M229.34,191.09l-11-2.94L173.7,354.86l.47.13a10.87,10.87,0,0,0,13.31-7.69Z"/><rect class="cls-5" x="87.27" y="252.08" width="172.6" height="26.82" transform="translate(-127.79 364.43) rotate(-75)"/><rect class="cls-5" x="51.84" y="242.58" width="172.6" height="26.82" transform="translate(-144.88 323.17) rotate(-75)"/><path class="cls-5" d="M109.29,170.18,67.43,326.39l25.91,6.94L138,166.61l-15.4-4.12A10.87,10.87,0,0,0,109.29,170.18Z"/><ellipse class="cls-6" cx="109.98" cy="213.92" rx="20.76" ry="8.72" transform="translate(-125.12 264.78) rotate(-75)"/><ellipse class="cls-6" cx="99.64" cy="252.5" rx="12.59" ry="5.54" transform="translate(-170.05 283.39) rotate(-75)"/><ellipse class="cls-6" cx="142.02" cy="236.15" rx="20.76" ry="8.72" transform="translate(-122.85 312.21) rotate(-75)"/><ellipse class="cls-6" cx="131.68" cy="274.73" rx="12.59" ry="5.54" transform="translate(-167.77 330.82) rotate(-75)"/><ellipse class="cls-6" cx="174.03" cy="258.38" rx="20.76" ry="8.72" transform="translate(-120.59 359.61) rotate(-75)"/><ellipse class="cls-6" cx="163.7" cy="296.96" rx="12.59" ry="5.54" transform="translate(-165.51 378.22) rotate(-75)"/><rect class="cls-7" x="160" y="139.58" width="18.05" height="143.97" rx="3.04" transform="translate(-79.07 320.08) rotate(-75)"/><path class="cls-8" d="M101.05,187.16l-2.59,9.64,127.82,34.25A3,3,0,0,0,230,228.9l2.59-9.65L104.78,185A3,3,0,0,0,101.05,187.16Z"/><ellipse class="cls-9" cx="144.51" cy="201.73" rx="4.46" ry="12.14" transform="translate(-87.75 289.11) rotate(-75)"/><ellipse class="cls-9" cx="121.95" cy="195.68" rx="2.83" ry="7.36" transform="translate(-98.63 262.83) rotate(-75)"/><rect class="cls-7" x="131.36" y="246.5" width="18.05" height="143.97" rx="3.04" transform="translate(-203.58 371.65) rotate(-75)"/><path class="cls-8" d="M72.4,294.08l-2.59,9.64L197.63,338a3,3,0,0,0,3.73-2.15l2.59-9.65L76.13,291.92A3,3,0,0,0,72.4,294.08Z"/><ellipse class="cls-9" cx="115.86" cy="308.65" rx="4.46" ry="12.14" transform="translate(-212.26 340.68) rotate(-75)"/><ellipse class="cls-9" cx="93.3" cy="302.6" rx="2.83" ry="7.36" transform="translate(-223.14 314.41) rotate(-75)"/><path class="cls-10" d="M234,192.32v0l-111.6-29.92a15.8,15.8,0,0,1,24.48-8.85,15.89,15.89,0,0,1,30.66,7.87,24.64,24.64,0,0,1,27.1,5.37A12.3,12.3,0,0,1,228,174.27a12.09,12.09,0,0,1-1.48,3.4A12.3,12.3,0,0,1,234,192.32Z"/><rect class="cls-11" x="251.74" y="66.35" width="8.51" height="54.43" rx="4.26"/><rect class="cls-11" x="224.98" y="79.06" width="8.51" height="44.01" rx="4.26" transform="matrix(0.97, -0.26, 0.26, 0.97, -18.35, 62.77)"/><rect class="cls-11" x="200.93" y="98.29" width="8.51" height="32.56" rx="4.26" transform="translate(-29.8 117.94) rotate(-30)"/><rect class="cls-11" x="278.51" y="79.06" width="8.51" height="44.01" rx="4.26" transform="translate(529.74 271.87) rotate(-165)"/><rect class="cls-11" x="302.55" y="98.29" width="8.51" height="32.56" rx="4.26" transform="translate(515.23 367.2) rotate(-150)"/></svg>